<svg width="62" height="62" viewBox="0 0 62 62" fill="none" xmlns="http://www.w3.org/2000/svg">
<path d="M4.7838 55L0.5695 39.054H3.69036L6.56064 51.7425L9.93208 39.054H13.1441L16.4244 51.7425L19.2947 39.054H22.4383L18.1101 55H14.6475L11.4811 43.1772L8.22358 55H4.7838ZM28.7035 55.2734C27.6101 55.2734 26.6229 55.0228 25.7421 54.5216C24.8765 54.0205 24.1855 53.3295 23.6691 52.4486C23.168 51.5526 22.9174 50.5199 22.9174 49.3506C22.9174 48.1812 23.1756 47.1561 23.6919 46.2753C24.2083 45.3792 24.8993 44.6807 25.7649 44.1795C26.6457 43.6783 27.6329 43.4278 28.7263 43.4278C29.8045 43.4278 30.7765 43.6783 31.6421 44.1795C32.523 44.6807 33.214 45.3792 33.7151 46.2753C34.2315 47.1561 34.4896 48.1812 34.4896 49.3506C34.4896 50.5199 34.2315 51.5526 33.7151 52.4486C33.214 53.3295 32.523 54.0205 31.6421 54.5216C30.7613 55.0228 29.7818 55.2734 28.7035 55.2734ZM28.7035 52.7448C29.4628 52.7448 30.1235 52.4638 30.6854 51.9019C31.2473 51.3248 31.5282 50.4744 31.5282 49.3506C31.5282 48.2267 31.2473 47.3839 30.6854 46.822C30.1235 46.2449 29.4704 45.9563 28.7263 45.9563C27.9518 45.9563 27.2836 46.2449 26.7217 46.822C26.1749 47.3839 25.9016 48.2267 25.9016 49.3506C25.9016 50.4744 26.1749 51.3248 26.7217 51.9019C27.2836 52.4638 27.9442 52.7448 28.7035 52.7448ZM37.0967 55V43.7011H39.6708L39.8986 45.6146C40.2479 44.9464 40.7491 44.4149 41.4021 44.02C42.0703 43.6252 42.8524 43.4278 43.7485 43.4278C45.1456 43.4278 46.2315 43.8682 47.006 44.749C47.7805 45.6298 48.1678 46.9207 48.1678 48.6216V55H45.2519V48.895C45.2519 47.923 45.0545 47.1789 44.6597 46.6625C44.2648 46.1462 43.6497 45.888 42.8145 45.888C41.9944 45.888 41.3186 46.1765 40.7871 46.7536C40.2707 47.3307 40.0125 48.1356 40.0125 49.1683V55H37.0967ZM55.6259 55.2734C54.6236 55.2734 53.7428 55.1139 52.9834 54.795C52.2241 54.4609 51.6166 54.0053 51.161 53.4282C50.7054 52.8511 50.4321 52.1829 50.341 51.4235H53.2796C53.3707 51.864 53.6137 52.2436 54.0085 52.5625C54.4186 52.8663 54.9425 53.0181 55.5804 53.0181C56.2182 53.0181 56.6814 52.8891 56.9699 52.6309C57.2737 52.3727 57.4255 52.0766 57.4255 51.7425C57.4255 51.2565 57.2129 50.93 56.7877 50.7629C56.3625 50.5807 55.7702 50.406 55.0109 50.239C54.5249 50.1327 54.0313 50.0036 53.5302 49.8517C53.029 49.6999 52.5658 49.51 52.1406 49.2822C51.7305 49.0392 51.3964 48.7355 51.1383 48.371C50.8801 47.9914 50.751 47.5282 50.751 46.9814C50.751 45.9791 51.1458 45.1363 51.9356 44.4529C52.7404 43.7695 53.8643 43.4278 55.307 43.4278C56.6434 43.4278 57.7065 43.7391 58.4962 44.3617C59.3011 44.9844 59.7795 45.8424 59.9313 46.9359H57.175C57.0079 46.1006 56.3777 45.683 55.2842 45.683C54.7375 45.683 54.3123 45.7893 54.0085 46.0019C53.72 46.2145 53.5757 46.4803 53.5757 46.7992C53.5757 47.1333 53.7959 47.3991 54.2363 47.5965C54.6767 47.7939 55.2614 47.9762 55.9904 48.1432C56.7801 48.3255 57.5015 48.5305 58.1545 48.7583C58.8227 48.9709 59.3542 49.2974 59.7491 49.7378C60.1439 50.163 60.3414 50.7781 60.3414 51.583C60.3566 52.2816 60.1743 52.9118 59.7947 53.4737C59.415 54.0356 58.8683 54.4761 58.1545 54.795C57.4407 55.1139 56.5979 55.2734 55.6259 55.2734Z" fill="white"/>
<path d="M30.6448 4.18053L24.7949 1V13.6653L30.6448 15.7099L36.5231 13.6653V1L30.6448 4.18053Z" fill="#605CFF" stroke="#605CFF" stroke-width="0.0567951"/>
<path d="M30.6166 14.6023L10 4.29395V17.0445L30.6166 27.8923L52 17.0445V4.29395L30.6166 14.6023Z" fill="#605CFF" stroke="#605CFF" stroke-width="0.0567951"/>
<path d="M30.9865 8.83785L18.0088 2.3916V14.5458L30.9865 20.9352L43.5098 14.1482V2.3916L30.9865 8.83785Z" fill="#605CFF" stroke="#605CFF" stroke-width="0.0567951"/>
</svg>
