<svg width="60" height="60" viewBox="0 0 60 60" fill="none" xmlns="http://www.w3.org/2000/svg">
<path opacity="0.1" d="M0 30C0 13.4315 13.4315 0 30 0C46.5685 0 60 13.4315 60 30C60 46.5685 46.5685 60 30 60C13.4315 60 0 46.5685 0 30Z" fill="white"/>
<path  d="M33.85 20.5011C34.481 20.5011 35.111 20.5901 35.71 20.7911C39.401 21.9911 40.731 26.0411 39.62 29.5811C38.99 31.3901 37.96 33.0411 36.611 34.3901C34.68 36.2601 32.561 37.9201 30.28 39.3501L30.03 39.5011L29.77 39.3401C27.481 37.9201 25.35 36.2601 23.401 34.3801C22.061 33.0311 21.03 31.3901 20.39 29.5811C19.26 26.0411 20.59 21.9911 24.321 20.7701C24.611 20.6701 24.91 20.6001 25.21 20.5611H25.33C25.611 20.5201 25.89 20.5011 26.17 20.5011H26.28C26.91 20.5201 27.52 20.6301 28.111 20.8311H28.17C28.21 20.8501 28.24 20.8711 28.26 20.8901C28.481 20.9611 28.69 21.0411 28.89 21.1511L29.27 21.3211C29.3618 21.3701 29.4649 21.4449 29.554 21.5096C29.6104 21.5506 29.6612 21.5875 29.7 21.6111C29.7163 21.6208 29.7329 21.6304 29.7496 21.6402C29.8354 21.6903 29.9247 21.7424 30 21.8001C31.111 20.9511 32.46 20.4911 33.85 20.5011ZM36.51 27.7011C36.92 27.6901 37.27 27.3611 37.3 26.9401V26.8211C37.33 25.4201 36.481 24.1511 35.19 23.6611C34.78 23.5201 34.33 23.7411 34.18 24.1611C34.04 24.5811 34.26 25.0411 34.68 25.1901C35.321 25.4301 35.75 26.0611 35.75 26.7601V26.7911C35.731 27.0201 35.8 27.2411 35.94 27.4111C36.08 27.5811 36.29 27.6801 36.51 27.7011Z" fill="#605CFF"/>
</svg>
